<svg width="24" height="24" viewBox="0 0 24 24" fill="none" xmlns="http://www.w3.org/2000/svg">
<path fill-rule="evenodd" clip-rule="evenodd" d="M14.75 7C14.75 7.19891 14.671 7.38968 14.5303 7.53033C14.3897 7.67098 14.1989 7.75 14 7.75H4C3.80109 7.75 3.61032 7.67098 3.46967 7.53033C3.32902 7.38968 3.25 7.19891 3.25 7C3.25 6.80109 3.32902 6.61032 3.46967 6.46967C3.61032 6.32902 3.80109 6.25 4 6.25H14C14.1989 6.25 14.3897 6.32902 14.5303 6.46967C14.671 6.61032 14.75 6.80109 14.75 7ZM20.75 12C20.75 12.1989 20.671 12.3897 20.5303 12.5303C20.3897 12.671 20.1989 12.75 20 12.75H4C3.80109 12.75 3.61032 12.671 3.46967 12.5303C3.32902 12.3897 3.25 12.1989 3.25 12C3.25 11.8011 3.32902 11.6103 3.46967 11.4697C3.61032 11.329 3.80109 11.25 4 11.25H20C20.1989 11.25 20.3897 11.329 20.5303 11.4697C20.671 11.6103 20.75 11.8011 20.75 12ZM20.75 17C20.75 17.1989 20.671 17.3897 20.5303 17.5303C20.3897 17.671 20.1989 17.75 20 17.75H10C9.80109 17.75 9.61032 17.671 9.46967 17.5303C9.32902 17.3897 9.25 17.1989 9.25 17C9.25 16.8011 9.32902 16.6103 9.46967 16.4697C9.61032 16.329 9.80109 16.25 10 16.25H20C20.1989 16.25 20.3897 16.329 20.5303 16.4697C20.671 16.6103 20.75 16.8011 20.75 17Z" fill="#101214"/>
</svg>
