<svg width="7" height="10" viewBox="0 0 7 10" fill="none" xmlns="http://www.w3.org/2000/svg">
<path fill-rule="evenodd" clip-rule="evenodd" d="M0.571393 6C0.45839 6.00002 0.34793 6.03355 0.253979 6.09634C0.160028 6.15914 0.086803 6.24838 0.0435615 6.35278C0.000319958 6.45718 -0.0109963 6.57206 0.0110431 6.6829C0.033082 6.79373 0.0874867 6.89554 0.16738 6.97546L3.02461 9.83269C3.13177 9.93982 3.2771 10 3.42862 10C3.58015 10 3.72547 9.93982 3.83264 9.83269L6.68987 6.97546C6.76976 6.89554 6.82416 6.79373 6.8462 6.6829C6.86824 6.57206 6.85693 6.45718 6.81369 6.35278C6.77044 6.24838 6.69722 6.15914 6.60327 6.09634C6.50932 6.03355 6.39886 6.00002 6.28585 6L0.571393 6Z" fill="#222223"/>
<path fill-rule="evenodd" clip-rule="evenodd" d="M6.28578 4C6.39879 3.99998 6.50925 3.96645 6.6032 3.90366C6.69715 3.84086 6.77037 3.75162 6.81362 3.64722C6.85686 3.54282 6.86817 3.42794 6.84613 3.3171C6.8241 3.20627 6.76969 3.10446 6.6898 3.02454L3.83257 0.167312C3.7254 0.0601821 3.58008 0 3.42855 0C3.27703 0 3.1317 0.0601821 3.02454 0.167312L0.167312 3.02454C0.0874186 3.10446 0.033013 3.20627 0.0109737 3.3171C-0.0110656 3.42794 0.000250935 3.54282 0.0434923 3.64722C0.0867336 3.75162 0.159958 3.84086 0.25391 3.90366C0.347861 3.96645 0.458321 3.99998 0.571324 4H6.28578Z" fill="#222223"/>
</svg>
