<svg width="120" height="44" viewBox="0 0 120 44" fill="none" xmlns="http://www.w3.org/2000/svg">
<path d="M60.9575 14.7983H62.7762V28.2983H60.9575V23.4233H54.0387V28.2983H52.22V14.7983H54.0387V21.6233H60.9575V14.7983ZM74.9602 21.7545C74.5477 22.2983 73.9852 22.7295 73.3289 23.0108L75.9164 28.2983H73.8539L71.4727 23.367H67.5914V28.2983H65.7727V14.7983H71.6039C72.0727 14.7983 72.5414 14.8733 72.9914 15.042C73.7227 15.2858 74.3977 15.7358 74.8664 16.3358C75.5227 17.0858 75.9164 18.0795 75.9164 19.092C75.9352 20.0483 75.5602 21.0233 74.9602 21.7545ZM67.5914 16.5233V21.642H71.5852C72.2602 21.642 73.0289 21.2858 73.4977 20.6858C73.8539 20.2358 74.0789 19.6733 74.0602 19.092C74.0414 18.4358 73.7977 17.7983 73.3664 17.3295C72.9164 16.8608 72.2227 16.5233 71.5852 16.5233H67.5914Z" fill="#FF3F25"/>
<path d="M86.5266 21.9983C87.0516 22.692 87.3141 23.5358 87.2954 24.3983C87.2766 25.2608 86.9954 26.0858 86.4704 26.7608C85.9266 27.417 85.1954 27.867 84.4266 28.1108C83.8829 28.2608 83.3204 28.2983 82.7579 28.2983H77.6204V14.7983H82.4954C82.9829 14.7983 83.6016 14.817 83.9954 14.9483C84.7079 15.1545 85.3829 15.5858 85.8516 16.2045C86.3579 16.7858 86.6204 17.5733 86.6579 18.3608C86.7141 19.1483 86.4141 19.9358 85.9079 20.5545C85.7954 20.7233 85.6641 20.892 85.5141 21.042C85.9079 21.2858 86.2454 21.6233 86.5266 21.9983ZM82.8891 16.5045H79.4579V20.367H82.8891C83.3766 20.367 84.0516 20.067 84.4079 19.5795C84.6704 19.2233 84.8204 18.792 84.8016 18.3608C84.8016 17.892 84.5954 17.4608 84.2954 17.1233C83.9204 16.7108 83.4329 16.5045 82.8891 16.5045ZM84.8204 25.8983C85.2141 25.5045 85.4391 24.9795 85.4579 24.3983C85.4579 23.8733 85.2704 23.3295 84.9329 22.917C84.5016 22.3545 83.8079 22.0733 83.2079 22.0733H79.4579V26.5733H82.7391C83.6204 26.5733 84.2391 26.517 84.8204 25.8983ZM90.668 23.742C90.7243 24.5108 90.9118 25.242 91.343 25.8045C91.868 26.4983 92.7305 26.8545 93.6305 26.8545C94.5493 26.8545 95.393 26.4983 95.918 25.8045C96.0305 25.6358 96.1055 25.4858 96.1993 25.3358L97.9993 26.1045C97.8305 26.4045 97.643 26.6858 97.4368 26.9483C96.4993 28.0545 95.093 28.617 93.6305 28.5795C92.168 28.542 90.7805 28.017 89.8993 26.9108C89.0368 25.842 88.6993 24.5295 88.718 23.2358C88.7555 21.8858 89.0555 20.592 89.8993 19.542C90.7993 18.4545 92.168 17.892 93.6305 17.892C95.1118 17.892 96.4618 18.4358 97.3805 19.542C98.2055 20.592 98.543 21.9233 98.543 23.2358C98.543 23.4045 98.5243 23.5733 98.5243 23.742H90.668ZM93.6305 19.617C92.7305 19.5983 91.868 19.9545 91.343 20.667C91.0055 21.117 90.818 21.6795 90.7243 22.2608H96.5368C96.443 21.6795 96.2555 21.117 95.918 20.667C95.393 19.9545 94.5493 19.5983 93.6305 19.617ZM103.507 19.6545V24.2858C103.507 25.1108 103.488 25.6545 103.732 26.0483C103.957 26.4608 104.407 26.7233 104.876 26.7795C105.401 26.817 106.02 26.7983 106.545 26.7045V28.2983C105.832 28.4858 104.763 28.5233 104.07 28.3733C103.17 28.167 102.476 27.7358 102.101 26.9858C101.726 26.2358 101.688 25.4108 101.688 24.3983V19.6545H99.4758V18.1733H101.688V15.3608H103.507V18.1733H106.545V19.6545H103.507ZM117.192 19.5045C117.998 20.5358 118.336 21.8858 118.336 23.2358C118.336 24.567 118.036 25.8795 117.192 26.9483C116.348 27.9983 115.073 28.5795 113.686 28.5795C112.373 28.5795 111.211 28.1295 110.405 27.2295V28.2983H108.792V14.7983H110.611V19.017C111.417 18.3045 112.523 17.892 113.686 17.892C115.055 17.892 116.367 18.4545 117.192 19.5045ZM115.748 25.8233C116.236 25.167 116.405 24.2108 116.405 23.2358C116.405 22.242 116.217 21.2858 115.73 20.6295C115.205 19.8795 114.361 19.542 113.405 19.542C112.523 19.542 111.698 19.8608 111.192 20.517C110.63 21.192 110.405 22.2045 110.405 23.2358C110.405 24.2483 110.63 25.2795 111.192 25.9545C111.736 26.592 112.542 26.9295 113.461 26.9295C114.342 26.9295 115.223 26.5733 115.748 25.8233Z" fill="#1C1C1C"/>
<path d="M15.4806 1.30742C18.5 -0.435807 22.22 -0.435808 25.2393 1.30742L35.8406 7.42805C38.86 9.17128 40.72 12.3929 40.72 15.8794V28.1206C40.72 31.6071 38.86 34.8287 35.8406 36.5719L25.2393 42.6926C22.22 44.4358 18.5 44.4358 15.4806 42.6926L4.87937 36.5719C1.86 34.8287 0 31.6071 0 28.1206V15.8794C0 12.3929 1.86 9.17128 4.87937 7.42805L15.4806 1.30742Z" fill="#FF3F25"/>
<path d="M16.1 16H17.7167V28H16.1V23.6667H9.95V28H8.33333V16H9.95V22.0667H16.1V16ZM28.2969 22.4C28.7635 23.0167 28.9969 23.7667 28.9802 24.5333C28.9635 25.3 28.7135 26.0333 28.2469 26.6333C27.7635 27.2167 27.1135 27.6167 26.4302 27.8333C25.9469 27.9667 25.4469 28 24.9469 28H20.3802V16H24.7135C25.1469 16 25.6969 16.0167 26.0469 16.1333C26.6802 16.3167 27.2802 16.7 27.6969 17.25C28.1469 17.7667 28.3802 18.4667 28.4135 19.1667C28.4635 19.8667 28.1969 20.5667 27.7469 21.1167C27.6469 21.2667 27.5302 21.4167 27.3969 21.55C27.7469 21.7667 28.0469 22.0667 28.2969 22.4ZM25.0635 17.5167H22.0135V20.95H25.0635C25.4969 20.95 26.0969 20.6833 26.4135 20.25C26.6469 19.9333 26.7802 19.55 26.7635 19.1667C26.7635 18.75 26.5802 18.3667 26.3135 18.0667C25.9802 17.7 25.5469 17.5167 25.0635 17.5167ZM26.7802 25.8667C27.1302 25.5167 27.3302 25.05 27.3469 24.5333C27.3469 24.0667 27.1802 23.5833 26.8802 23.2167C26.4969 22.7167 25.8802 22.4667 25.3469 22.4667H22.0135V26.4667H24.9302C25.7135 26.4667 26.2635 26.4167 26.7802 25.8667ZM30.5281 26.2667H32.2615V28H30.5281V26.2667Z" fill="white"/>
</svg>
