<svg width="25" height="25" viewBox="0 0 25 25" fill="none" xmlns="http://www.w3.org/2000/svg">
<path d="M20.7709 5.82293V19.1563C20.7709 19.6215 20.6355 20.0382 20.3647 20.4063C20.0938 20.7674 19.7292 21.0104 19.2709 21.1354L13.3022 22.8542C13.2188 22.875 13.1251 22.8958 13.0209 22.9167H12.7917C12.5626 22.9167 12.3542 22.8854 12.1667 22.8229C11.9792 22.7604 11.7883 22.6771 11.5938 22.5729L7.68758 20.3646C7.54175 20.2813 7.42716 20.1736 7.34383 20.0417C7.2605 19.9097 7.21883 19.7604 7.21883 19.5938C7.21883 19.3438 7.30911 19.132 7.48966 18.9583C7.66328 18.7847 7.87508 18.6979 8.12508 18.6979H13.1876V6.39584L9.37508 7.75001C9.07647 7.86112 8.83342 8.05557 8.64592 8.33334C8.45842 8.59723 8.36466 8.89237 8.36466 9.21876V16.2292C8.36466 16.5208 8.29175 16.7847 8.14591 17.0208C8.00703 17.257 7.80911 17.4445 7.55216 17.5833L5.7605 18.5625C5.59383 18.6528 5.42716 18.6979 5.2605 18.6979C4.97578 18.6979 4.73272 18.5972 4.53133 18.3958C4.32994 18.1945 4.22925 17.9479 4.22925 17.6563V7.78126C4.22925 7.42015 4.323 7.08334 4.5105 6.77084C4.70494 6.42362 4.95841 6.15973 5.27091 5.97918L11.6876 2.33334C11.8334 2.25001 11.9897 2.18751 12.1563 2.14584C12.323 2.10418 12.4897 2.08334 12.6563 2.08334C12.7744 2.08334 12.882 2.09376 12.9792 2.11459C13.0765 2.12848 13.1841 2.15279 13.3022 2.18751L19.2709 3.84376C19.5001 3.90626 19.7049 4.00001 19.8855 4.12501C20.0661 4.25001 20.2223 4.39932 20.3542 4.57293C20.4931 4.75348 20.5973 4.94793 20.6667 5.15626C20.7362 5.37154 20.7709 5.59376 20.7709 5.82293ZM19.3959 19.1563V5.82293C19.3959 5.66321 19.3542 5.52432 19.2709 5.40626C19.1667 5.27432 19.0383 5.19445 18.8855 5.16668L15.948 4.35418C15.7327 4.29168 15.5036 4.22918 15.2605 4.16668C15.0313 4.09029 14.8056 4.02432 14.5834 3.96876V21.0521L18.8855 19.7917C19.0383 19.7639 19.1667 19.691 19.2709 19.5729C19.3542 19.4549 19.3959 19.316 19.3959 19.1563Z" fill="black"/>
</svg>
