<svg width="20" height="20" viewBox="0 0 20 20" fill="none" xmlns="http://www.w3.org/2000/svg">
<path fill-rule="evenodd" clip-rule="evenodd" d="M10 1.04166C8.95018 1.04166 7.94337 1.45869 7.20104 2.20103C6.4587 2.94336 6.04167 3.95017 6.04167 4.99999C6.04167 6.04981 6.4587 7.05662 7.20104 7.79895C7.94337 8.54129 8.95018 8.95832 10 8.95832C11.0498 8.95832 12.0566 8.54129 12.799 7.79895C13.5413 7.05662 13.9583 6.04981 13.9583 4.99999C13.9583 3.95017 13.5413 2.94336 12.799 2.20103C12.0566 1.45869 11.0498 1.04166 10 1.04166ZM7.29167 4.99999C7.29167 4.2817 7.57701 3.59282 8.08492 3.08491C8.59283 2.577 9.2817 2.29166 10 2.29166C10.7183 2.29166 11.4072 2.577 11.9151 3.08491C12.423 3.59282 12.7083 4.2817 12.7083 4.99999C12.7083 5.71828 12.423 6.40716 11.9151 6.91507C11.4072 7.42298 10.7183 7.70832 10 7.70832C9.2817 7.70832 8.59283 7.42298 8.08492 6.91507C7.57701 6.40716 7.29167 5.71828 7.29167 4.99999Z" fill="#101214"/>
<path d="M15 2.70834C14.8342 2.70834 14.6753 2.77419 14.5581 2.8914C14.4408 3.00861 14.375 3.16758 14.375 3.33334C14.375 3.4991 14.4408 3.65808 14.5581 3.77529C14.6753 3.8925 14.8342 3.95834 15 3.95834C16.1475 3.95834 16.875 4.71334 16.875 5.41668C16.875 6.12001 16.1475 6.87501 15 6.87501C14.8342 6.87501 14.6753 6.94086 14.5581 7.05807C14.4408 7.17528 14.375 7.33425 14.375 7.50001C14.375 7.66577 14.4408 7.82474 14.5581 7.94195C14.6753 8.05916 14.8342 8.12501 15 8.12501C16.6142 8.12501 18.125 7.01418 18.125 5.41668C18.125 3.81918 16.6142 2.70834 15 2.70834ZM5.625 3.33334C5.625 3.16758 5.55915 3.00861 5.44194 2.8914C5.32473 2.77419 5.16576 2.70834 5 2.70834C3.38583 2.70834 1.875 3.81918 1.875 5.41668C1.875 7.01418 3.38583 8.12501 5 8.12501C5.16576 8.12501 5.32473 8.05916 5.44194 7.94195C5.55915 7.82474 5.625 7.66577 5.625 7.50001C5.625 7.33425 5.55915 7.17528 5.44194 7.05807C5.32473 6.94086 5.16576 6.87501 5 6.87501C3.85333 6.87501 3.125 6.12001 3.125 5.41668C3.125 4.71334 3.85333 3.95834 5 3.95834C5.16576 3.95834 5.32473 3.8925 5.44194 3.77529C5.55915 3.65808 5.625 3.4991 5.625 3.33334Z" fill="#101214"/>
<path fill-rule="evenodd" clip-rule="evenodd" d="M10 10.2083C8.51333 10.2083 7.13833 10.6083 6.1175 11.2892C5.10083 11.9675 4.375 12.9725 4.375 14.1667C4.375 15.3608 5.10083 16.3667 6.1175 17.0442C7.13833 17.7242 8.51333 18.125 10 18.125C11.4867 18.125 12.8617 17.725 13.8825 17.0442C14.8992 16.3658 15.625 15.3608 15.625 14.1667C15.625 12.9725 14.8983 11.9667 13.8825 11.2892C12.8617 10.6092 11.4867 10.2083 10 10.2083ZM5.625 14.1667C5.625 13.52 6.01833 12.8583 6.81083 12.33C7.6 11.8042 8.72583 11.4583 10 11.4583C11.275 11.4583 12.4 11.8042 13.1892 12.33C13.9817 12.8583 14.375 13.52 14.375 14.1667C14.375 14.8133 13.9817 15.475 13.1892 16.0033C12.4 16.5292 11.2742 16.875 10 16.875C8.725 16.875 7.6 16.5292 6.81083 16.0033C6.01833 15.475 5.625 14.8133 5.625 14.1667Z" fill="#101214"/>
<path d="M16.0558 11.5333C16.0733 11.453 16.1065 11.3769 16.1534 11.3094C16.2003 11.242 16.2601 11.1844 16.3293 11.14C16.3985 11.0957 16.4758 11.0654 16.5567 11.051C16.6376 11.0365 16.7206 11.0382 16.8008 11.0558C17.6017 11.2317 18.3242 11.5492 18.8608 11.9883C19.3967 12.4267 19.7917 13.03 19.7917 13.75C19.7917 14.4708 19.3967 15.0733 18.8608 15.5117C18.3242 15.9508 17.6025 16.2683 16.8008 16.4442C16.7206 16.4618 16.6377 16.4634 16.5569 16.449C16.476 16.4346 16.3988 16.4044 16.3296 16.3601C16.2604 16.3159 16.2007 16.2584 16.1537 16.191C16.1067 16.1237 16.0735 16.0477 16.0558 15.9675C16.0382 15.8873 16.0366 15.8044 16.051 15.7235C16.0654 15.6427 16.0956 15.5655 16.1399 15.4963C16.1841 15.4271 16.2416 15.3673 16.309 15.3203C16.3763 15.2734 16.4523 15.2401 16.5325 15.2225C17.1933 15.0783 17.7208 14.8292 18.0692 14.5442C18.4175 14.2592 18.5417 13.98 18.5417 13.75C18.5417 13.52 18.4175 13.2417 18.0692 12.9558C17.7208 12.6708 17.1933 12.4225 16.5325 12.2775C16.4523 12.2599 16.3763 12.2267 16.3089 12.1797C16.2415 12.1328 16.184 12.073 16.1397 12.0038C16.0955 11.9346 16.0653 11.8574 16.0509 11.7765C16.0365 11.6956 16.0382 11.6127 16.0558 11.5325M3.2 11.0558C3.362 11.0205 3.53142 11.0509 3.67098 11.1405C3.81054 11.23 3.90881 11.3713 3.94417 11.5333C3.97953 11.6953 3.94909 11.8647 3.85954 12.0043C3.76999 12.1439 3.62867 12.2421 3.46667 12.2775C2.80667 12.4217 2.27917 12.6708 1.93083 12.9558C1.5825 13.2408 1.45833 13.52 1.45833 13.75C1.45833 13.98 1.5825 14.2583 1.93083 14.5442C2.27917 14.8292 2.80667 15.0775 3.4675 15.2225C3.6295 15.2581 3.77074 15.3566 3.86013 15.4963C3.94952 15.636 3.97975 15.8055 3.94417 15.9675C3.90858 16.1295 3.8101 16.2707 3.67039 16.3601C3.53067 16.4495 3.36117 16.4797 3.19917 16.4442C2.3975 16.2683 1.67583 15.9508 1.13917 15.5117C0.603334 15.0733 0.208334 14.47 0.208334 13.75C0.208334 13.0292 0.603334 12.4267 1.13917 11.9883C1.67583 11.5492 2.39833 11.2317 3.2 11.0558Z" fill="#101214"/>
</svg>
